{"title":"The.Calling.BRRip.720P.MP4.NL.ENG.SRT.2014.{Th3Sp3cialist}","uid":10730086,"size":2062002565,"categoryP":"video","categoryS":"hd___movies","magnet":"?xt=urn:btih:0a4184c9c0512981fda4621f1275a46d03a52cab&amp;dn=The.Calling.BRRip.720P.MP4.NL.ENG.SRT.2014.%7BTh3Sp3cialist%7D&amp;tr=udp%3A%2F%2Ftracker.openbittorrent.com%3A80&amp;tr=udp%3A%2F%2Fopen.demonii.com%3A1337&amp;tr=udp%3A%2F%2Ftracker.coppersurfer.tk%3A6969&amp;tr=udp%3A%2F%2Fexodus.desync.com%3A6969","seeders":1,"leechers":0,"uploader":"HOLLANDmovies","files":-1,"time":1407616519,"description":"General\nComplete name                  : The.Calling.2014.720p.MP4.{Th3Sp3cialist}.mp4\nFormat                         : MPEG-4\nFormat profile                 : Base Media\nCodec ID                       : isom\nFile size                      : 1.90 GiB\nDuration                       : 1h 48mn\nOverall bit rate mode          : Variable\nOverall bit rate               : 2 520 Kbps\nEncoded date                   : UTC 1970-01-01 00:00:00\nTagged date                    : UTC 1970-01-01 00:00:00\nWriting application            : Lavf52.57.1\n\nVideo\nID                             : 1\nFormat                         : AVC\nFormat/Info                    : Advanced Video Codec\nFormat profile                 : &lt;a class=&quot;__cf_email__&quot; href=&quot;/cdn-cgi/l/email-protection&quot; data-cfemail=&quot;e7af8e808fa7abd4c9d6&quot;&gt;[email&amp;#160;protected]&lt;/a&gt;&lt;script cf-hash='f9e31' type=&quot;text/javascript&quot;&gt;\n/* &lt;![CDATA[ */!function(){try{var t=&quot;currentScript&quot;in document?document.currentScript:function(){for(var t=document.getElementsByTagName(&quot;script&quot;),e=t.length;e--;)if(t[e].getAttribute(&quot;cf-hash&quot;))return t[e]}();if(t&amp;&amp;t.previousSibling){var e,r,n,i,c=t.previousSibling,a=c.getAttribute(&quot;data-cfemail&quot;);if(a){for(e=&quot;&quot;,r=parseInt(a.substr(0,2),16),n=2;a.length-n;n+=2)i=parseInt(a.substr(n,2),16)^r,e+=String.fromCharCode(i);e=document.createTextNode(e),c.parentNode.replaceChild(e,c)}}}catch(u){}}();/* ]]&gt; */&lt;/script&gt;\nFormat settings, CABAC         : Yes\nFormat settings, ReFrames      : 5 frames\nCodec ID                       : avc1\nCodec ID/Info                  : Advanced Video Coding\nDuration                       : 1h 48mn\nBit rate                       : 2 350 Kbps\nWidth                          : 1 280 pixels\nHeight                         : 530 pixels\nDisplay aspect ratio           : 2.40:1\nFrame rate mode                : Constant\nFrame rate                     : 23.976 fps\nColor space                    : YUV\nChroma subsampling             : 4:2:0\nBit depth                      : 8 bits\nScan type                      : Progressive\nBits/(Pixel*Frame)             : 0.144\nStream size                    : 1.77 GiB (93%)\nEncoded date                   : UTC 1970-01-01 00:00:00\nTagged date                    : UTC 1970-01-01 00:00:00\n &lt;a href=&quot;\nhttp://bayimg.com/oaplGaAFl&quot; rel=&quot;nofollow&quot; target=&quot;_NEW&quot;&gt;\nhttp://bayimg.com/oaplGaAFl&lt;/a&gt; &lt;a href=&quot;\nhttp://bayimg.com/OapLHAaFL&quot; rel=&quot;nofollow&quot; target=&quot;_NEW&quot;&gt;\nhttp://bayimg.com/OapLHAaFL&lt;/a&gt; &lt;a href=&quot;\nhttp://bayimg.com/oaplJAAfl&quot; rel=&quot;nofollow&quot; target=&quot;_NEW&quot;&gt;\nhttp://bayimg.com/oaplJAAfl&lt;/a&gt;\n\n\nAudio\nID                             : 2\nFormat                         : AAC\nFormat/Info                    : Advanced Audio Codec\nFormat profile                 : LC\nCodec ID                       : 40\nDuration                       : 1h 48mn\nBit rate mode                  : Variable\nBit rate                       : 165 Kbps\nChannel(s)                     : 2 channels\nChannel positions              : Front: L R\nSampling rate                  : 48.0 KHz\nCompression mode               : Lossy\nStream size                    : 127 MiB (7%)\nEncoded date                   : UTC 1970-01-01 00:00:00\nTagged date                    : UTC 1970-01-01 00:00:00\n\nSubtitle:\n\nEnglish\t\t\t       : G2G.fm\nDutch\t\t\t       : Vertaling: door eddie1965 winschoten","torrent":{"xt":"urn:btih:0a4184c9c0512981fda4621f1275a46d03a52cab","amp;dn":"The.Calling.BRRip.720P.MP4.NL.ENG.SRT.2014.%7BTh3Sp3cialist%7D","amp;tr":["udp%3A%2F%2Ftracker.openbittorrent.com%3A80","udp%3A%2F%2Fopen.demonii.com%3A1337","udp%3A%2F%2Ftracker.coppersurfer.tk%3A6969","udp%3A%2F%2Fexodus.desync.com%3A6969"],"infoHash":"0a4184c9c0512981fda4621f1275a46d03a52cab","infoHashBuffer":{"type":"Buffer","data":[10,65,132,201,192,81,41,129,253,164,98,31,18,117,164,109,3,165,44,171]},"announce":[],"urlList":[]}}